<?xml version="1.0" standalone="no"?>
<!DOCTYPE svg PUBLIC "-//W3C//DTD SVG 20010904//EN"
 "http://www.w3.org/TR/2001/REC-SVG-20010904/DTD/svg10.dtd">
<svg version="1.0" xmlns="http://www.w3.org/2000/svg"
 width="640.000000pt" height="1280.000000pt" viewBox="0 0 640.000000 1280.000000"
 preserveAspectRatio="xMidYMid meet">
<metadata>
Created by potrace 1.15, written by Peter Selinger 2001-2017
</metadata>
<g transform="translate(0.000000,1280.000000) scale(0.100000,-0.100000)"
fill="#009688" stroke="none">
<path d="M3185 12790 c-149 -13 -343 -38 -500 -66 -269 -48 -416 -93 -566
-171 l-106 -56 8 -46 c4 -25 12 -86 18 -136 7 -49 16 -119 21 -155 5 -36 14
-103 20 -150 24 -182 32 -238 46 -326 15 -95 64 -549 64 -596 0 -22 -11 -35
-57 -67 -88 -59 -152 -129 -187 -201 -27 -57 -31 -75 -31 -150 0 -77 4 -91 34
-150 37 -71 120 -159 194 -205 l48 -30 -6 -210 c-3 -115 -10 -577 -15 -1025
-11 -830 -24 -1815 -36 -2648 l-7 -463 -51 -21 c-231 -97 -537 -277 -746 -438
-125 -96 -396 -369 -491 -495 -359 -473 -579 -1012 -659 -1620 -18 -137 -24
-411 -11 -555 47 -547 225 -1056 526 -1505 372 -555 927 -961 1595 -1168 749
-232 1497 -164 2231 204 306 153 551 329 790 568 344 344 592 749 756 1236
122 361 170 677 160 1054 -11 451 -108 841 -320 1284 -296 619 -788 1106
-1394 1382 l-83 38 0 206 c0 113 4 487 10 831 8 562 19 1374 38 2804 l7 490
55 37 c95 66 169 145 203 217 27 57 32 78 32 147 0 71 -4 88 -33 147 -36 73
-136 176 -217 224 l-47 27 6 86 c4 47 11 138 16 201 5 63 14 176 20 250 6 74
15 189 20 255 5 66 14 183 20 260 6 77 15 187 20 245 5 58 10 131 11 164 3 68
9 63 -151 128 -168 69 -387 123 -640 158 -102 14 -492 21 -615 10z m-981
-1887 c8 -140 16 -177 53 -226 117 -156 450 -276 877 -317 162 -15 493 -13
625 5 263 35 507 118 629 214 68 54 107 132 98 198 -14 109 -18 203 -8 203 15
0 103 -72 136 -111 118 -139 97 -310 -53 -437 -45 -38 -66 -50 -71 -42 -6 9
-11 7 -19 -9 -22 -40 -222 -126 -411 -175 -211 -55 -359 -71 -685 -71 -336 0
-435 10 -671 70 -196 50 -472 167 -497 211 -4 8 -14 14 -21 14 -23 0 -108 82
-144 140 -32 49 -36 64 -40 136 -4 72 -1 88 21 135 14 30 36 65 49 79 32 34
110 100 119 100 4 0 10 -53 13 -117z m1981 -360 c-59 -32 -188 -73 -308 -99
-230 -49 -775 -43 -1002 11 -33 8 -44 13 -25 10 299 -35 329 -37 615 -32 309
5 397 15 562 63 48 14 106 34 128 44 50 23 71 25 30 3z m-1713 -396 l21 -6 -7
-443 -7 -443 -27 -55 c-24 -49 -27 -66 -27 -160 0 -81 6 -122 24 -180 23 -74
23 -81 24 -565 0 -269 3 -438 7 -375 3 63 7 98 8 78 2 -31 6 -38 22 -38 11 0
20 5 20 10 0 6 5 10 11 10 14 0 39 25 39 39 0 6 7 11 15 11 8 0 15 5 15 10 0
6 9 10 20 10 11 0 20 5 20 10 0 6 7 10 15 10 9 0 18 12 22 30 4 23 11 30 29
30 24 0 24 0 8 38 -49 115 6 14 80 -148 92 -199 137 -318 151 -403 12 -73 7
-215 -10 -273 -18 -62 -81 -167 -227 -377 -177 -253 -268 -490 -313 -816 -8
-63 -16 -115 -18 -115 -8 -3 -125 -45 -140 -51 -18 -7 -18 13 -13 546 3 305 8
1085 11 1734 3 649 8 1358 12 1576 l6 396 94 -43 c51 -23 103 -44 115 -47z
m1909 -1004 c-6 -571 -16 -1524 -22 -2118 -6 -594 -12 -1081 -13 -1082 -2 -2
-57 17 -124 42 -198 73 -371 118 -597 156 -44 7 -72 15 -62 17 10 2 16 9 14
15 -3 7 -30 69 -61 139 -82 190 -117 294 -123 373 -11 139 35 258 159 410 141
173 188 250 188 308 0 52 30 129 127 323 49 99 100 213 113 254 32 100 32 198
2 258 -14 26 -27 40 -34 36 -7 -5 -8 -3 -3 5 10 16 -51 79 -130 136 -33 23
-125 75 -204 116 -165 84 -233 140 -307 251 -90 135 -104 243 -45 362 24 49
44 72 101 115 39 30 73 59 77 64 3 5 -19 -9 -49 -32 -58 -44 -78 -50 -78 -26
0 8 -4 15 -10 15 -5 0 -10 7 -10 15 0 8 -4 15 -10 15 -5 0 -10 9 -10 20 0 11
-4 20 -10 20 -5 0 -10 7 -10 15 0 10 -10 15 -30 15 -28 0 -30 3 -30 35 0 28
-4 35 -20 35 -15 0 -20 7 -20 30 0 26 -5 31 -40 40 -35 9 -40 14 -40 40 0 20
-6 31 -20 35 -14 4 -20 15 -20 34 0 23 9 32 50 55 28 15 50 29 50 32 0 5 -230
-114 -245 -128 -5 -4 -13 -8 -17 -8 -10 0 -10 134 -2 325 l7 141 81 -13 c124
-18 518 -36 641 -28 290 17 541 71 736 158 30 13 56 23 58 21 1 -1 -2 -470 -8
-1041z m-781 -619 c0 -2 -7 -4 -15 -4 -8 0 -15 4 -15 10 0 5 7 7 15 4 8 -4 15
-8 15 -10z m191 -101 l38 -25 -5 -366 -5 -367 -26 -57 c-19 -41 -32 -58 -46
-58 -17 0 -19 7 -16 78 2 42 2 114 1 160 -2 75 -4 82 -22 82 -20 0 -20 4 -14
160 l7 160 -40 0 -40 0 -6 122 c-4 66 -7 141 -7 165 l0 43 72 -36 c39 -20 88
-47 109 -61z m206 -305 c-3 -7 -5 -2 -5 12 0 14 2 19 5 13 2 -7 2 -19 0 -25z
m-699 -1945 c-27 -2 -69 -2 -95 0 -27 2 -5 3 47 3 52 0 74 -1 48 -3z m209 -9
c-3 -3 -12 -4 -19 -1 -8 3 -5 6 6 6 11 1 17 -2 13 -5z m280 -80 c148 -30 285
-69 446 -126 l117 -42 0 -82 c0 -46 -5 -86 -10 -89 -6 -3 -22 2 -38 13 -108
77 -344 159 -556 193 -62 11 -80 17 -86 34 -4 11 -17 44 -29 73 l-21 52 26 0
c15 0 83 -12 151 -26z m-1405 -149 c-2 -36 -8 -65 -14 -65 -6 0 -37 -13 -69
-30 l-59 -30 0 65 c0 36 -1 68 -2 72 -3 7 114 51 137 52 6 1 9 -25 7 -64z
m1472 -49 c204 -53 371 -120 448 -179 17 -13 17 -18 -3 -78 -12 -35 -25 -68
-29 -73 -5 -4 -37 1 -72 13 -34 11 -148 43 -252 72 -209 56 -262 76 -290 108
-19 21 -19 22 3 67 14 28 21 57 19 75 -6 38 6 38 176 -5z m-1727 -66 c-5 -80
-9 -95 -37 -134 -93 -129 -17 -270 203 -379 99 -49 272 -108 324 -110 27 -2
33 -6 33 -24 0 -34 -61 -105 -115 -132 -44 -23 -61 -26 -150 -25 -150 1 -296
46 -430 132 -38 25 -75 45 -82 45 -7 0 -10 4 -8 8 3 3 -3 13 -12 20 -9 8 -24
28 -35 44 -10 17 -18 25 -18 18 0 -6 12 -25 26 -42 20 -24 25 -40 22 -66 -3
-26 0 -35 12 -36 8 -1 -22 -5 -68 -10 -111 -11 -176 -31 -247 -77 -69 -45
-179 -155 -260 -259 l-56 -72 53 -30 c72 -42 53 -39 -33 5 -39 19 -73 33 -76
31 -2 -3 -53 -103 -112 -223 -62 -124 -120 -230 -136 -244 -15 -14 -40 -43
-55 -66 -24 -34 -40 -44 -97 -63 -106 -35 -306 -136 -367 -186 -31 -25 -56
-44 -56 -42 0 2 20 62 43 133 163 483 386 857 707 1188 257 264 555 474 900
632 63 29 119 53 124 54 5 0 6 -39 3 -90z m2476 -21 c618 -310 1077 -817 1356
-1497 246 -600 296 -1229 146 -1824 -149 -589 -445 -1122 -831 -1498 l-98 -95
89 95 c452 486 699 1023 771 1675 24 221 11 553 -32 803 -4 28 -8 31 -20 22
-12 -11 -13 -7 -6 21 4 19 7 61 7 94 -1 85 -39 151 -136 232 -103 87 -312 189
-522 253 -63 20 -69 24 -91 68 -67 131 -257 225 -414 204 l-60 -8 -17 58 -16
59 -62 -6 -62 -6 -25 38 c-42 63 -180 203 -263 264 -84 63 -213 136 -290 164
-26 10 -46 20 -44 22 3 2 28 -6 57 -17 29 -12 56 -17 59 -12 3 4 22 14 41 21
80 31 109 45 105 52 -3 4 9 12 25 18 17 5 38 17 46 26 8 8 27 15 42 15 25 0
69 19 47 20 -5 1 6 8 25 16 19 8 37 19 40 23 3 4 22 12 43 17 l39 9 -21 27
c-30 37 -26 43 9 12 16 -15 27 -31 23 -37 -3 -6 -2 -7 4 -4 11 7 272 -216 352
-301 126 -134 249 -317 359 -532 41 -80 71 -136 68 -125 -5 17 3 24 54 43 33
13 60 27 60 32 0 4 12 11 28 15 15 3 35 13 44 22 15 13 18 12 33 -16 8 -17 18
-31 20 -31 12 0 -140 280 -228 419 -32 52 -52 89 -43 82 16 -13 56 -6 56 10 0
5 10 9 23 9 12 1 40 9 62 20 22 11 46 19 53 20 6 0 33 -28 58 -62 76 -104 73
-89 -3 20 -24 34 -48 60 -54 57 -5 -3 -7 0 -4 7 3 7 -39 65 -93 128 -158 185
-376 379 -549 488 -84 53 -99 60 -87 40 4 -7 3 -8 -5 -4 -6 4 -9 11 -6 16 3 4
-10 17 -28 28 -19 11 -46 27 -60 37 -15 9 -27 15 -27 12 0 -3 23 -19 50 -37
46 -30 49 -34 35 -49 -8 -9 -28 -30 -44 -48 -15 -18 -30 -31 -32 -30 -2 1 12
-12 31 -30 26 -24 13 -18 -50 23 -47 30 -111 67 -142 81 l-57 25 1 49 c0 26
-5 63 -11 82 -7 19 -10 56 -7 83 2 27 5 77 5 111 l1 63 25 -10 c14 -6 81 -37
148 -71z m-2330 -79 c4 -30 3 -38 -3 -25 -8 19 -14 83 -6 74 2 -2 6 -24 9 -49z
m48 -137 c15 -35 25 -63 23 -63 -8 0 -64 128 -63 142 0 8 3 8 6 -2 3 -8 18
-43 34 -77z m-211 -39 c0 -40 43 -112 88 -147 26 -20 56 -44 67 -53 14 -11 10
-10 -14 3 -47 26 -119 90 -135 122 -17 33 -28 103 -15 96 5 -4 9 -13 9 -21z
m310 -109 c46 -51 48 -54 11 -20 -23 22 -52 54 -63 70 -25 35 -20 30 52 -50z
m-187 38 c-7 -2 -19 -2 -25 0 -7 3 -2 5 12 5 14 0 19 -2 13 -5z m-19 -29 c3
-8 2 -12 -4 -9 -6 3 -10 10 -10 16 0 14 7 11 14 -7z m46 -49 c13 -14 21 -25
18 -25 -2 0 -15 11 -28 25 -13 14 -21 25 -18 25 2 0 15 -11 28 -25z m2491 -82
c13 -16 12 -17 -3 -4 -10 7 -18 15 -18 17 0 8 8 3 21 -13z m-201 -71 c0 -5 -7
-17 -15 -28 -14 -18 -14 -17 -4 9 12 27 19 34 19 19z m-2643 -118 c-3 -3 -12
-4 -19 -1 -8 3 -5 6 6 6 11 1 17 -2 13 -5z m2060 -180 c-3 -3 -12 -4 -19 -1
-8 3 -5 6 6 6 11 1 17 -2 13 -5z m-110 -30 c-3 -3 -12 -4 -19 -1 -8 3 -5 6 6
6 11 1 17 -2 13 -5z m-2457 -279 c14 -8 21 -14 15 -14 -5 0 -21 6 -35 14 -14
8 -20 14 -15 14 6 0 21 -6 35 -14z m-1087 -1049 c17 -41 17 -49 3 -132 -54
-313 -46 -768 19 -1073 8 -41 13 -76 11 -78 -6 -7 -54 207 -76 342 -29 180
-41 415 -31 590 10 156 40 395 50 395 3 0 14 -20 24 -44z"/>
</g>
</svg>
